<svg width="109" height="19" fill="none" xmlns="http://www.w3.org/2000/svg"><g clip-path="url(#clip0)"><path fill-rule="evenodd" clip-rule="evenodd" d="M.015 1.993h3.779v15.749h2.128V1.993h3.783V.243H.01v1.75h.004zm13.827 7.5h5.2v-1.75h-5.2v-5.75h5.91V.243h-8.038v17.5h8.039v-1.75h-5.911v-6.5zm12.713-2.25l-2.6-7h-2.128l3.192 8.5-3.547 9H23.6l2.955-7.5 2.956 7.5h2.128l-3.547-9 3.192-8.5h-2.128l-2.601 7zm14.24-7v7.749h-4.964V.243h-2.128v17.5h2.128v-8h4.963v8h2.128V.243h-2.128.002zm7.674.175a3.776 3.776 0 0 0-1.6 1.45 7.926 7.926 0 0 0-1 2.762 23.07 23.07 0 0 0-.343 4.362c-.024 1.462.09 2.922.343 4.362a7.918 7.918 0 0 0 1 2.762c.38.629.937 1.133 1.6 1.45a5.6 5.6 0 0 0 4.279 0 3.772 3.772 0 0 0 1.6-1.45 7.955 7.955 0 0 0 1-2.762c.252-1.44.366-2.9.343-4.362a23.144 23.144 0 0 0-.343-4.362 7.964 7.964 0 0 0-1-2.762 3.776 3.776 0 0 0-1.6-1.45 5.6 5.6 0 0 0-4.28.001V.418zm1.025 15.749a2.61 2.61 0 0 1-.946-1.175 9.123 9.123 0 0 1-.65-2.3 22.668 22.668 0 0 1-.248-3.7 22.68 22.68 0 0 1 .248-3.7 9.128 9.128 0 0 1 .65-2.3c.193-.476.522-.885.946-1.175a2.064 2.064 0 0 1 2.223 0c.423.29.752.7.946 1.175.316.735.534 1.508.65 2.3.183 1.224.266 2.462.248 3.7a22.657 22.657 0 0 1-.248 3.7 9.16 9.16 0 0 1-.65 2.3 2.622 2.622 0 0 1-.946 1.175 2.064 2.064 0 0 1-2.223 0zm16.866-.675l3.434-10.749h.118l.71 13h2.128l-.946-17.5h-2.6l-3.854 12h-.095L61.4.243h-2.6l-.945 17.5h2.128l.709-13h.118l3.429 10.749h2.128-.008zm16.252-2.25l1.064 4.5h2.128l-4.02-17.5h-3.07l-4.02 17.5h2.129l1.064-4.5h4.728-.003zm-.354-1.75h-4.02l1.963-8.75h.093l1.964 8.75zm7.783-.625V1.618h1.655c.47-.01.938.061 1.384.212.387.143.72.4.957.738.285.43.474.916.557 1.425.13.743.189 1.496.177 2.25.012.754-.047 1.507-.177 2.25-.082.51-.272.995-.556 1.425-.236.338-.57.595-.957.737a4.02 4.02 0 0 1-1.384.213h-1.653l-.003-.001zm0 1.5c.375.078.754.137 1.135.175.408.047.819.072 1.23.075.68.015 1.357-.09 2-.313a3.053 3.053 0 0 0 1.4-1.05 5.055 5.055 0 0 0 .827-1.962c.199-1.004.29-2.027.272-3.05.019-1-.077-1.997-.284-2.975a4.543 4.543 0 0 0-.9-1.925A3.389 3.389 0 0 0 94.113.305 8.115 8.115 0 0 0 91.7-.007c-.66-.003-1.32.035-1.974.113-.613.076-1.219.206-1.81.387v17.249h2.129v-5.374l-.005-.001zm8.25-10.375h3.783v15.75h2.128V1.993h3.783V.243h-9.691v1.75l-.003-.001z" fill="#fff"/></g><defs><clipPath id="clip0"><path fill="#fff" d="M0 0h109v19H0z"/></clipPath></defs></svg>