<svg width="17" height="51" viewBox="0 0 17 51" fill="none" xmlns="http://www.w3.org/2000/svg">
<g clip-path="url(#clip0)">
<path d="M17 32.586L13.458 29.044C14.4581 27.7403 15.0001 26.1431 15 24.5C15 23.0166 14.5601 21.5666 13.736 20.3332C12.9119 19.0999 11.7406 18.1386 10.3701 17.5709C8.99968 17.0032 7.49168 16.8547 6.03683 17.1441C4.58197 17.4335 3.2456 18.1478 2.1967 19.1967C1.14781 20.2456 0.433503 21.582 0.144114 23.0368C-0.145275 24.4917 0.00324965 25.9997 0.570907 27.3701C1.13856 28.7406 2.09986 29.9119 3.33323 30.736C4.5666 31.5601 6.01664 32 7.5 32C9.21 32 10.782 31.421 12.044 30.458L15.586 34L17 32.586ZM2 24.5C2 21.467 4.467 19 7.5 19C10.532 19 13 21.467 13 24.5C13 27.532 10.532 30 7.5 30C6.0418 29.9984 4.64378 29.4184 3.61267 28.3873C2.58156 27.3562 2.00159 25.9582 2 24.5Z" fill="white"/>
</g>
<g clip-path="url(#clip1)">
<path d="M17 49.586L13.458 46.044C14.4581 44.7403 15.0001 43.1431 15 41.5C15 40.0166 14.5601 38.5666 13.736 37.3332C12.9119 36.0999 11.7406 35.1386 10.3701 34.5709C8.99968 34.0032 7.49168 33.8547 6.03683 34.1441C4.58197 34.4335 3.2456 35.1478 2.1967 36.1967C1.14781 37.2456 0.433503 38.582 0.144114 40.0368C-0.145275 41.4917 0.00324965 42.9997 0.570907 44.3701C1.13856 45.7406 2.09986 46.9119 3.33323 47.736C4.5666 48.5601 6.01664 49 7.5 49C9.21 49 10.782 48.421 12.044 47.458L15.586 51L17 49.586ZM2 41.5C2 38.467 4.467 36 7.5 36C10.532 36 13 38.467 13 41.5C13 44.532 10.532 47 7.5 47C6.0418 46.9984 4.64378 46.4184 3.61267 45.3873C2.58156 44.3562 2.00159 42.9582 2 41.5Z" fill="#EE3643"/>
</g>
<g opacity="0.3" clip-path="url(#clip2)">
<path d="M17 15.586L13.458 12.044C14.4581 10.7403 15.0001 9.1431 15 7.5C15 6.01664 14.5601 4.5666 13.736 3.33323C12.9119 2.09986 11.7406 1.13856 10.3701 0.570907C8.99968 0.00324965 7.49168 -0.145275 6.03683 0.144114C4.58197 0.433503 3.2456 1.14781 2.1967 2.1967C1.14781 3.2456 0.433503 4.58197 0.144114 6.03683C-0.145275 7.49168 0.00324965 8.99968 0.570907 10.3701C1.13856 11.7406 2.09986 12.9119 3.33323 13.736C4.5666 14.5601 6.01664 15 7.5 15C9.21 15 10.782 14.421 12.044 13.458L15.586 17L17 15.586ZM2 7.5C2 4.467 4.467 2 7.5 2C10.532 2 13 4.467 13 7.5C13 10.532 10.532 13 7.5 13C6.0418 12.9984 4.64378 12.4184 3.61267 11.3873C2.58156 10.3562 2.00159 8.95821 2 7.5Z" fill="white"/>
</g>
<defs>
<clipPath id="clip0">
<rect width="17" height="17" fill="white" transform="translate(0 17)"/>
</clipPath>
<clipPath id="clip1">
<rect width="17" height="17" fill="white" transform="translate(0 34)"/>
</clipPath>
<clipPath id="clip2">
<rect width="17" height="17" fill="white"/>
</clipPath>
</defs>
</svg>
