<svg width="61" height="36" viewBox="0 0 61 36" fill="none" xmlns="http://www.w3.org/2000/svg">
<g clip-path="url(#clip0)">
<path d="M21 27.5L12.125 19V25H6.125V30H12.125V36L21 27.5Z" fill="#32425C"/>
<path d="M3.10601 32.952V22.048C3.12401 21.672 3.27701 20.991 4.11601 20.991H9.14301V19H4.11601C1.93801 19 1.11201 20.81 1.08701 22.027V32.973C1.11201 34.189 1.93801 36 4.11601 36H9.14301V34.01H4.11601C3.27701 34.01 3.12401 33.327 3.10601 32.952Z" fill="#32425C"/>
</g>
<g clip-path="url(#clip1)">
<path d="M38.881 32.166C36.737 31.431 34.625 30.5 33.674 29.776C33.017 29.275 32.904 28.158 33.157 27.361C34.275 26.458 35.021 24.884 35.021 23.083C35.021 20.276 33.221 18 31 18C28.779 18 26.979 20.276 26.979 23.083C26.979 24.884 27.725 26.457 28.842 27.36C29.095 28.158 28.983 29.275 28.325 29.776C27.375 30.5 25.262 31.43 23.118 32.166C20.974 32.902 21 36 21 36H41C41 36 41.025 32.901 38.881 32.166Z" fill="#32425C"/>
</g>
<g clip-path="url(#clip2)">
<path d="M55.875 27.5L47 19V25H41V30H47V36L55.875 27.5Z" fill="#32425C"/>
<path d="M57.986 34.01H52.959V36H57.986C60.164 36 60.99 34.19 61.015 32.974V22.028C60.99 20.811 60.164 19 57.986 19H52.959V20.99H57.986C58.825 20.99 58.978 21.671 58.996 22.047V32.951C58.979 33.327 58.825 34.01 57.986 34.01Z" fill="#32425C"/>
</g>
<g clip-path="url(#clip3)">
<path d="M21 9.5L12.125 1V7H6.125V12H12.125V18L21 9.5Z" fill="#C5C5C5"/>
<path d="M3.10601 14.952V4.048C3.12401 3.672 3.27701 2.991 4.11601 2.991H9.14301V1H4.11601C1.93801 1 1.11201 2.81 1.08701 4.027V14.973C1.11201 16.189 1.93801 18 4.11601 18H9.14301V16.01H4.11601C3.27701 16.01 3.12401 15.327 3.10601 14.952Z" fill="#C5C5C5"/>
</g>
<g clip-path="url(#clip4)">
<path d="M38.881 14.166C36.737 13.431 34.625 12.5 33.674 11.776C33.017 11.275 32.904 10.158 33.157 9.361C34.275 8.458 35.021 6.884 35.021 5.083C35.021 2.276 33.221 0 31 0C28.779 0 26.979 2.276 26.979 5.083C26.979 6.884 27.725 8.457 28.842 9.36C29.095 10.158 28.983 11.275 28.325 11.776C27.375 12.5 25.262 13.43 23.118 14.166C20.974 14.902 21 18 21 18H41C41 18 41.025 14.901 38.881 14.166Z" fill="#C5C5C5"/>
</g>
<g clip-path="url(#clip5)">
<path d="M55.875 9.5L47 1V7H41V12H47V18L55.875 9.5Z" fill="#C5C5C5"/>
<path d="M57.986 16.01H52.959V18H57.986C60.164 18 60.99 16.19 61.015 14.974V4.028C60.99 2.811 60.164 1 57.986 1H52.959V2.99H57.986C58.825 2.99 58.978 3.671 58.996 4.047V14.951C58.979 15.327 58.825 16.01 57.986 16.01Z" fill="#C5C5C5"/>
</g>
<defs>
<clipPath id="clip0">
<rect width="21" height="17" fill="white" transform="translate(0 19)"/>
</clipPath>
<clipPath id="clip1">
<rect width="20" height="18" fill="white" transform="translate(21 18)"/>
</clipPath>
<clipPath id="clip2">
<rect width="20" height="17" fill="white" transform="translate(41 19)"/>
</clipPath>
<clipPath id="clip3">
<rect width="21" height="17" fill="white" transform="translate(0 1)"/>
</clipPath>
<clipPath id="clip4">
<rect width="20" height="18" fill="white" transform="translate(21)"/>
</clipPath>
<clipPath id="clip5">
<rect width="20" height="17" fill="white" transform="translate(41 1)"/>
</clipPath>
</defs>
</svg>
